<svg xmlns="http://www.w3.org/2000/svg" viewBox="0 0 24 24" width="24" height="24">
  <!-- Agroalimentare: spiga di grano -->
  <g fill="#6ee7a0" stroke="#2c7a52" stroke-width="0.6">
    <rect x="11" y="9" width="2" height="13" rx="1"/>
    <path d="M12 3 c2.2 1 3.2 3 2.3 5.2 C12.1 7.2 11.1 5.2 12 3 Z"/>
    <path d="M12 3 c-2.2 1 -3.2 3 -2.3 5.2 C11.9 7.2 12.9 5.2 12 3 Z"/>
    <path d="M12 8 c2.5 1.1 3.6 3.1 2.6 5.4 C12.3 12.3 11.2 10.3 12 8 Z"/>
    <path d="M12 8 c-2.5 1.1 -3.6 3.1 -2.6 5.4 C11.7 12.3 12.8 10.3 12 8 Z"/>
    <path d="M12 13 c2.6 1.1 3.7 3.2 2.7 5.6 C12.3 17.5 11.2 15.4 12 13 Z"/>
    <path d="M12 13 c-2.6 1.1 -3.7 3.2 -2.7 5.6 C11.7 17.5 12.8 15.4 12 13 Z"/>
  </g>
</svg>
